<?xml version="1.0" encoding="utf-8"?>
<!-- Generator: Adobe Illustrator 22.0.1, SVG Export Plug-In . SVG Version: 6.00 Build 0)  -->
<svg version="1.1" id="Layer_1" xmlns="http://www.w3.org/2000/svg" xmlns:xlink="http://www.w3.org/1999/xlink" x="0px" y="0px"
	 viewBox="0 0 417 219" style="enable-background:new 0 0 417 219;" xml:space="preserve">
<style type="text/css">
	.st0{fill:#DBD0A1;}
</style>
<g>
	<path class="st0" d="M182.3,110.4c0.2-0.1,0.5,0,0.5,0.2c0,0.1,0,0.2-0.1,0.2c-1.3,1-7.6,7.1-7.8,7.3c0,0,0,0.3,0.1,0.5
		c0.5,0.8,0.3,1.9-0.5,3.1c-0.9,1.3-1.8,2-2.8,2.2s-1.4-0.5-1.1-1.4c0.3-0.9,1.4-2.4,2.5-3.8l0.3-0.3l-0.2-0.2
		c-0.1-0.1-0.8-0.4-1.5-0.6c-2.1-0.8-2.6-1.2-2.8-2.5c-0.1-0.7-0.2-0.9,0-1.6c0.4-2,2-4.7,3.4-5.4c0.5-0.3,1.2-0.4,1.5-0.2
		c1,0.4,1,1.7,0,1.9c-0.5,0.1-1.1,0.7-2,2c-1.6,2.3-2,3.4-1.3,4.1c0.1,0.1,0.9,0.6,1.7,1c0.8,0.3,1.6,0.7,1.7,0.7
		c0.2,0.1,0.2,0.1,1.4-1c0.9-0.8,5.4-4.9,6.8-6.2L182.3,110.4z M172.8,122.1c1-0.9,1.8-2.3,1.4-2.8c-0.1-0.2-0.1-0.1-0.7,0.4
		c-0.9,1.1-1.6,1.9-1.9,2.5c-0.4,0.8-0.4,0.9,0.1,0.6C172,122.7,172.4,122.3,172.8,122.1L172.8,122.1z"/>
	<path class="st0" d="M189.8,108.5c0.1,0,0.1,0.1,0.1,0.2c0,0.1-0.1,0.2-0.2,0.3c-0.4,0.7-0.9,1.4-1.4,2.1c-1.1,1.7-2.1,3.6-3.8,4.8
		c-0.7,0.5-1.6,1-2.5,0.7c-0.6-0.2-1-0.7-1.3-1.2c-0.1-0.5-0.2-0.9-0.3-1.3c0-0.4-0.1-0.8-0.1-1.2c0-0.6,0.2-1.2,0.4-1.8
		c0.3-1,0.4-1.2,0.9-2c0.3-0.5,0.8-1,1-1.1c1.3-0.9,2.4-0.1,2.2,1.5c-0.1,0.6-0.7,1.9-1.1,2.5c-0.4,0.5-1.1,1.1-1.4,1.2
		c-0.3,0-0.3,0.3-0.3,0.5c-0.1,0.4,0,0.8,0.1,1.2c0,0.2,0.1,0.3,0.1,0.4c0.1,0.2,0.3,0.4,0.4,0.4c0.7,0.2,1.3-0.2,1.8-0.5
		c0.2-0.1,0.5-0.4,0.7-0.6c0-0.1,0.2-0.2,0.3-0.3c1.5-1.8,2.7-3.8,4.1-5.7c0.1-0.1,0.1-0.1,0.2-0.2c0.1,0,0.2,0,0.3,0L189.8,108.5z
		 M182.2,112.2c0,0.3,0.2,0.1,0.5-0.5s0.6-1.3,0.6-1.8c0-0.3,0-0.3-0.3,0.2C182.8,110.5,182.3,111.8,182.2,112.2L182.2,112.2z"/>
	<path class="st0" d="M206.4,105.8c0,0.1,0,0.1-0.1,0.2c-0.4,0.3-1.2,1.1-2.1,2.1c-2.6,2.5-2.9,2.9-3.9,3.6
		c-1.1,0.8-1.9,0.9-2.4,0.3c-0.3-0.4-0.5-1.7-0.4-2.4c0-0.3,0-0.6,0-0.6c0,0-0.5,0.5-1.1,1.1c-2,2.1-3.1,3.2-4,3.9
		c-0.8,0.6-1,0.7-1.5,0.8c-0.5,0.1-0.7,0.1-1,0c-0.5-0.2-0.8-0.7-0.9-1.5c-0.2-1.2-0.1-2.5,0.5-5c0.3-1.4,0.5-1.7,1.1-1.8
		c0.4-0.1,0.5-0.1,0.8,0.1c0.4,0.3,0.4,0.3,0.4,0.7c0.1,0.5,0.1,0.5-0.3,1.4c-0.7,1.6-1.4,4.2-1.2,4.7c0,0.1,0.1,0.2,0.3,0.3
		c0.2,0.1,1.1-0.4,2-1.2c0.9-0.8,3.2-3.2,4.2-4.3c1.1-1.3,1.4-1.4,2-1.1c0.5,0.3,0.5,0.9,0.1,3.2c-0.1,0.5-0.1,0.9-0.1,0.9
		c0.2,0.1,1.1-0.5,2.4-1.7c1.6-1.3,3.5-3,4.6-4.1C206.1,105.3,206.5,105.4,206.4,105.8z"/>
	<path class="st0" d="M221,103.1c0.1,0.1,0.1,0.2,0,0.3c-2,2.4-3.1,3.6-4.1,4.3c-1.1,0.8-1.9,1.1-2.8,0.8c-0.7-0.2-1.2-0.8-2-2.2
		c-0.3-0.6-0.5-0.8-0.6-0.8c-0.3,0-1.1,0.8-2.5,2.6c-1.5,1.9-2.3,2.8-2.7,2.8c-0.6,0.1-1.1-0.3-1.1-1.1c0-0.5,0.1-2.1,0.3-2.8
		c0.1-0.3,0.2-0.6,0.1-0.6c0,0,0.3-0.8,0.4-1.2c0.3-0.8,0.5-1.2,0.8-1.4c0.7-0.3,1.5,0.2,1.4,1c0,0.2-0.1,1-0.4,1.8l-0.4,1.4
		l0.5-0.5c0.7-0.7,2.6-2.5,2.9-2.8c0.4-0.3,1-0.4,1.3-0.2c0.4,0.2,0.6,0.6,1,1.6c0.4,1.1,0.6,1.5,1.1,1.8c0.4,0.2,0.7,0.2,1.2,0.1
		c1-0.3,1.8-1,3.8-3.1c0.4-0.5,1.1-1.3,1.5-1.8C220.7,103,220.9,103,221,103.1L221,103.1z"/>
	<path class="st0" d="M250.6,97c-1.8,0.3-5,2.2-8.3,4.9c-1,0.8-1,0.8-1.1,0.9c0,0.1,0,0.1,0,1.5c-0.1,5.9-1.2,11.4-3,15.1
		c-0.7,1.5-2.3,3.5-3.7,4.9c-2.2,2.2-5,3.6-6.9,3.6c-0.5,0-1.4-0.3-1.8-0.6c-0.7-0.6-1.2-1.6-1.3-2.7c-0.2-2.3,1.4-6.1,3.8-9.7
		c2.6-3.7,6.3-7.7,10.1-10.9l0.3-0.3c1.2-1.1,1.3-1.1,1.3-1.9c0-0.1,0-0.1,0-0.2c-0.2-4.3-1-9.9-1.9-10.8c-0.1,0-0.2-0.1-0.3-0.1
		c-0.2,0-0.3,0.2-0.6,0.6c-0.8,1.2-2.4,4.3-4.8,9.3c-0.7,1.5-1.4,3.1-1.7,3.6c-0.7,1.3-2.6,4.1-3.3,4.7c-1.8,1.7-3.6,2.1-5.2,1
		c-0.7-0.5-1.1-0.9-1.6-1.9c-1.9-3.8-0.9-13.1,2-19.1c0.5-1.1,1.6-2.7,2.3-3.5c0.7-0.8,1.9-1.7,2.7-2c0.8-0.4,2-0.5,2.7-0.4
		c1.7,0.3,2.9,1.3,3.9,3.2c0.7,1.3,0.9,2.4,0.7,3.4c-0.1,0.3-0.1,0.3-0.3,0.4l-0.1-0.6c-0.2-0.8-0.2-0.9-0.7-1.6
		c-1.2-1.6-2.1-2.4-3.1-2.7c-0.6-0.2-0.7-0.2-1.5,0c-0.7,0.1-1,0.2-1.5,0.5c-0.3,0.2-0.8,0.6-1.1,0.8c-0.7,0.7-2,2.6-2.6,3.8
		c-2.5,5.5-3.5,13-2.2,16.6c0.4,1.1,1,1.7,1.6,1.9c0.6,0.2,1.3,0,2.1-0.5c1.6-1.1,3-3.3,5.6-8.6c4.1-8.4,5.1-10.1,6.3-10.3
		c0.8-0.2,1.4,0.4,2.1,1.7c0.3,0.6,0.4,1.1,0.7,2.6c0.4,2,0.6,3.3,0.8,5.9c0.1,1.5,0.1,1.6,0.3,1.7c0.1,0.1,0.3,0,0.6-0.2
		c0.2-0.1,0.5-0.3,0.7-0.5c1.3-0.9,3.4-2.2,4.6-2.8c1.3-0.7,2.3-1.1,3.5-1.3c0.3,0,0.7-0.1,0.8-0.1c0.1,0,0.1,0.1,0.1,0.1
		S251.4,96.8,250.6,97L250.6,97z M239.9,105.9c0.1-1.5,0-1.5-0.1-1.6c-0.2-0.1-0.3,0-0.7,0.4c-0.2,0.2-0.6,0.5-1,0.9
		c-0.8,0.8-1.8,1.8-2.6,2.7c-4.8,5-8,9.9-9.1,13.8c-0.8,2.8,0.1,3.8,0.9,4.1c0.3,0.1,0.7,0,1.2-0.1s1-0.2,1.4-0.4
		c0.9-0.3,2.3-1.2,3.2-1.9c1.6-1.3,3.3-3.5,4.2-5.2C238.7,115.4,239.7,110.6,239.9,105.9L239.9,105.9z"/>
</g>
</svg>
